<svg xmlns="http://www.w3.org/2000/svg" width="235.042" height="64" viewBox="0 0 235.042 64">
  <g id="Group_93" data-name="Group 93" transform="translate(-2111.052 1419.5)">
    <g id="Group_1" data-name="Group 1" transform="translate(2111.552 -1406.498)">
      <path id="Path_1" data-name="Path 1" d="M123.987,397.945v20.209h5.721l-4.621,7.657-4.62,7.657-4.62-7.657-4.621-7.657h5.721V397.945H103.452V427.7a11.489,11.489,0,0,0,11.734,11.227h10.56A11.489,11.489,0,0,0,137.481,427.7V397.945Z" transform="translate(-103.452 -397.945)" fill="#105157" stroke="#105157" stroke-width="1"/>
    </g>
    <text id="P" transform="translate(2152.298 -1371.5)" fill="#105157" stroke="#105157" stroke-width="5" font-size="40" font-family="SegoeUI, Segoe UI"><tspan x="0" y="0">P</tspan></text>
    <text id="L" transform="translate(2182.272 -1370.5)" fill="#105157" stroke="#105157" stroke-width="5" font-size="41" font-family="SegoeUI, Segoe UI"><tspan x="0" y="0">L</tspan></text>
    <text id="O" transform="translate(2208.5 -1370.5)" fill="#105157" stroke="#105157" stroke-width="5" font-size="41" font-family="SegoeUI, Segoe UI"><tspan x="0" y="0">O</tspan></text>
    <text id="A" transform="translate(2247.842 -1371.5)" fill="#105157" stroke="#105157" stroke-width="4" font-size="40" font-family="SegoeUI, Segoe UI"><tspan x="0" y="0">A</tspan></text>
    <text id="D" transform="translate(2281.563 -1370.5)" fill="#105157" stroke="#105157" stroke-width="5" font-size="41" font-family="SegoeUI, Segoe UI"><tspan x="0" y="0">D</tspan></text>
    <text id="Y" transform="translate(2318.094 -1371.5)" fill="#105157" stroke="#105157" stroke-width="5" font-size="40" font-family="SegoeUI, Segoe UI"><tspan x="0" y="0">Y</tspan></text>
  </g>
</svg>
