<svg xmlns="http://www.w3.org/2000/svg" width="124.206" height="113.624" viewBox="0 0 124.206 113.624">
  <g id="Group_4" data-name="Group 4" transform="translate(0 -21.823)">
    <path id="Path_2" data-name="Path 2" d="M97.5,52.8a38.792,38.792,0,0,0-76.788,7.644c0,.874.036,1.769.114,2.715A23.275,23.275,0,0,0,23.3,109.585h2.715c-.062-.859-.129-1.712-.129-2.586a33.62,33.62,0,1,1,67.24,0c0,.874-.067,1.727-.129,2.586h2.715A28.417,28.417,0,0,0,97.5,52.8Z" transform="translate(0 0)" fill="#bbdefb"/>
    <circle id="Ellipse_2" data-name="Ellipse 2" cx="28.448" cy="28.448" r="28.448" transform="translate(31.058 78.551)" fill="#4caf50"/>
    <g id="Group_2" data-name="Group 2" transform="translate(46.609 88.896)">
      <path id="Path_3" data-name="Path 3" d="M237.353,334.675a2.586,2.586,0,0,1-2.586-2.586V301.055a2.586,2.586,0,1,1,5.172,0v31.034A2.587,2.587,0,0,1,237.353,334.675Z" transform="translate(-224.456 -298.469)" fill="#fafafa"/>
      <path id="Path_4" data-name="Path 4" d="M215.482,314a2.586,2.586,0,0,1-1.831-.755l-8.514-8.519-8.514,8.519a2.586,2.586,0,0,1-3.657-3.657l10.345-10.345a2.586,2.586,0,0,1,3.657,0l10.345,10.345A2.586,2.586,0,0,1,215.482,314Z" transform="translate(-192.24 -298.479)" fill="#fafafa"/>
    </g>
  </g>
</svg>
